<svg xmlns="http://www.w3.org/2000/svg" width="820" height="700">
	<title>SVG background</title>
	<rect x="218" y="140" width="384" height="60" fill="#0ff" stroke="#03A" stroke-width="4" />
	<rect x="218" y="290" width="384" height="60" fill="#0ff" stroke="#03A" stroke-width="4" />
	<rect x="218" y="440" width="384" height="60" fill="#0ff" stroke="#03A" stroke-width="4" />
	<path d="M 220 200 c -100 0 -160 30 -200 60 c 40 -90 90 -120 200 -120" stroke="#03A" stroke-width="4" fill="#0ff" />
	<path d="M 220 350 c -100 0 -160 30 -200 60 c 40 -90 90 -120 200 -120" stroke="#03A" stroke-width="4" fill="#0ff" />
	<path d="M 220 500 c -100 0 -160 30 -200 60 c 40 -90 90 -120 200 -120" stroke="#03A" stroke-width="4" fill="#0ff" />
	<path d="M 600 140 c 100 0 160 -30 200 -60 c -40 90 -90 120 -200 120" stroke="#03A" stroke-width="4" fill="#0ff" />
	<path d="M 600 290 c 100 0 160 -30 200 -60 c -40 90 -90 120 -200 120" stroke="#03A" stroke-width="4" fill="#0ff" />
	<path d="M 600 440 c 100 0 160 -30 200 -60 c -40 90 -90 120 -200 120" stroke="#03A" stroke-width="4" fill="#0ff" />
</svg>